<svg width="524" height="132" viewBox="0 0 524 132" fill="none" xmlns="http://www.w3.org/2000/svg">
<rect width="429" height="132" fill="#5AC4FF"/>
<rect width="34" height="132" transform="matrix(-1 0 0 1 471 0)" fill="#5AC4FF"/>
<rect width="20" height="132" transform="matrix(-1 0 0 1 496 0)" fill="#5AC4FF"/>
<rect width="7" height="132" transform="matrix(-1 0 0 1 511 0)" fill="#5AC4FF"/>
<rect width="3" height="132" transform="matrix(-1 0 0 1 524 0)" fill="#5AC4FF"/>
<path d="M41.452 59V42.61H44.752L50.89 50.75H49.35L55.312 42.61H58.612V59H55.202V46.372L56.566 46.68L50.252 54.82H49.812L43.718 46.68L44.862 46.372V59H41.452ZM61.5184 59V42.61H72.5404V45.58H64.9284V49.298H72.1004V52.268H64.9284V56.03H72.5404V59H61.5184ZM77.4215 59V45.58H73.2635V42.61H84.9235V45.58H80.8315V59H77.4215ZM84.3065 59L89.8505 42.61H94.3825L99.9265 59H96.2085L95.1085 55.656H89.1025L88.0025 59H84.3065ZM90.0485 52.686H94.1625L91.6545 44.942H92.5785L90.0485 52.686ZM105.149 59L99.5389 42.61H103.279L107.503 55.766H106.755L110.979 42.61H114.719L109.109 59H105.149ZM116.411 59V42.61H127.433V45.58H119.821V49.298H126.993V52.268H119.821V56.03H127.433V59H116.411ZM129.366 59V42.61H135.636C136.765 42.61 137.763 42.808 138.628 43.204C139.508 43.6 140.197 44.1867 140.696 44.964C141.195 45.7413 141.444 46.702 141.444 47.846C141.444 48.9607 141.187 49.914 140.674 50.706C140.161 51.4833 139.471 52.07 138.606 52.466L142.346 59H138.518L134.47 51.762L136.67 53.06H132.776V59H129.366ZM132.776 50.09H135.658C136.142 50.09 136.56 49.9947 136.912 49.804C137.264 49.6133 137.535 49.3493 137.726 49.012C137.931 48.6747 138.034 48.286 138.034 47.846C138.034 47.3913 137.931 46.9953 137.726 46.658C137.535 46.3207 137.264 46.0567 136.912 45.866C136.56 45.6753 136.142 45.58 135.658 45.58H132.776V50.09ZM150.002 59.264C148.975 59.264 148.007 59.0807 147.098 58.714C146.203 58.3327 145.426 57.7973 144.766 57.108C144.121 56.4187 143.637 55.6047 143.314 54.666L146.108 53.412C146.519 54.3067 147.083 55.0107 147.802 55.524C148.535 56.0373 149.342 56.294 150.222 56.294C150.691 56.294 151.095 56.2207 151.432 56.074C151.769 55.9273 152.033 55.7293 152.224 55.48C152.415 55.216 152.51 54.908 152.51 54.556C152.51 54.1747 152.393 53.852 152.158 53.588C151.923 53.3093 151.557 53.0893 151.058 52.928L147.846 51.872C146.541 51.4467 145.558 50.8453 144.898 50.068C144.238 49.276 143.908 48.33 143.908 47.23C143.908 46.262 144.143 45.4113 144.612 44.678C145.096 43.9447 145.763 43.3727 146.614 42.962C147.479 42.5513 148.469 42.346 149.584 42.346C150.567 42.346 151.476 42.5147 152.312 42.852C153.148 43.1893 153.867 43.666 154.468 44.282C155.084 44.898 155.546 45.6387 155.854 46.504L153.082 47.758C152.774 46.9953 152.312 46.4013 151.696 45.976C151.08 45.536 150.376 45.316 149.584 45.316C149.129 45.316 148.726 45.3893 148.374 45.536C148.022 45.6827 147.751 45.8953 147.56 46.174C147.369 46.438 147.274 46.746 147.274 47.098C147.274 47.4793 147.399 47.8167 147.648 48.11C147.897 48.3887 148.271 48.6087 148.77 48.77L151.916 49.782C153.236 50.2073 154.219 50.8013 154.864 51.564C155.524 52.3267 155.854 53.258 155.854 54.358C155.854 55.3113 155.605 56.162 155.106 56.91C154.607 57.6433 153.918 58.2227 153.038 58.648C152.173 59.0587 151.161 59.264 150.002 59.264ZM158.284 59V42.61H169.306V45.58H161.694V49.298H168.866V52.268H161.694V56.03H169.306V59H158.284ZM173.982 59L179.526 42.61H184.058L189.602 59H185.884L184.784 55.656H178.778L177.678 59H173.982ZM179.724 52.686H183.838L181.33 44.942H182.254L179.724 52.686ZM191.306 59V42.61H193.924L202.724 54.204L201.316 54.534V42.61H204.726V59H202.086L193.44 47.318L194.716 46.988V59H191.306ZM207.634 59V42.61H212.98C214.754 42.61 216.294 42.962 217.6 43.666C218.905 44.37 219.917 45.338 220.636 46.57C221.354 47.802 221.714 49.21 221.714 50.794C221.714 52.378 221.354 53.7933 220.636 55.04C219.917 56.272 218.905 57.24 217.6 57.944C216.294 58.648 214.754 59 212.98 59H207.634ZM211.044 56.03H213.068C214.138 56.03 215.062 55.8173 215.84 55.392C216.617 54.952 217.218 54.3433 217.644 53.566C218.084 52.774 218.304 51.85 218.304 50.794C218.304 49.7233 218.084 48.7993 217.644 48.022C217.218 47.2447 216.617 46.6433 215.84 46.218C215.062 45.7927 214.138 45.58 213.068 45.58H211.044V56.03ZM230.93 59L226.64 42.61H230.336L233.57 56.338H232.58L235.99 42.61H239.51L242.92 56.338H241.93L245.164 42.61H248.86L244.57 59H240.61L237.178 45.8H238.322L234.89 59H230.93ZM250.559 59V42.61H261.581V45.58H253.969V49.298H261.141V52.268H253.969V56.03H261.581V59H250.559ZM263.514 59V42.61H270.445C271.574 42.61 272.542 42.8007 273.349 43.182C274.155 43.5633 274.771 44.1133 275.197 44.832C275.622 45.536 275.835 46.394 275.835 47.406C275.835 48.1247 275.637 48.814 275.241 49.474C274.845 50.1193 274.192 50.662 273.283 51.102V49.43C274.148 49.7673 274.815 50.1707 275.285 50.64C275.754 51.1093 276.077 51.6227 276.253 52.18C276.429 52.7227 276.517 53.2947 276.517 53.896C276.517 55.5093 275.981 56.7633 274.911 57.658C273.84 58.5527 272.351 59 270.445 59H263.514ZM266.925 56.03H270.841C271.53 56.03 272.08 55.832 272.491 55.436C272.901 55.04 273.107 54.5267 273.107 53.896C273.107 53.2507 272.901 52.73 272.491 52.334C272.08 51.938 271.53 51.74 270.841 51.74H266.925V56.03ZM266.925 48.77H270.687C271.215 48.77 271.633 48.6233 271.941 48.33C272.263 48.022 272.425 47.6187 272.425 47.12C272.425 46.6213 272.263 46.2253 271.941 45.932C271.633 45.624 271.215 45.47 270.687 45.47H266.925V48.77ZM283.676 59.264C282.767 59.264 281.901 59.0953 281.08 58.758C280.259 58.406 279.562 57.9147 278.99 57.284C278.418 56.6533 278.037 55.9127 277.846 55.062L280.86 54.05C281.109 54.754 281.476 55.2893 281.96 55.656C282.444 56.008 283.016 56.184 283.676 56.184C284.219 56.184 284.681 56.0813 285.062 55.876C285.458 55.6707 285.766 55.3847 285.986 55.018C286.206 54.6367 286.316 54.1967 286.316 53.698C286.316 53.1993 286.206 52.774 285.986 52.422C285.781 52.0553 285.48 51.7767 285.084 51.586C284.703 51.3807 284.233 51.278 283.676 51.278C283.353 51.278 283.031 51.3147 282.708 51.388C282.385 51.4613 282.092 51.564 281.828 51.696L281.036 50.046L285.238 45.47H278.836V42.61H289.066V45.25L284.754 50.156L284.864 48.77C285.847 48.77 286.697 48.9753 287.416 49.386C288.149 49.782 288.714 50.3393 289.11 51.058C289.521 51.7767 289.726 52.6127 289.726 53.566C289.726 54.6513 289.462 55.6267 288.934 56.492C288.406 57.3573 287.687 58.0393 286.778 58.538C285.869 59.022 284.835 59.264 283.676 59.264ZM41.452 92V75.61H46.798C48.5727 75.61 50.1127 75.962 51.418 76.666C52.7233 77.37 53.7353 78.338 54.454 79.57C55.1727 80.802 55.532 82.21 55.532 83.794C55.532 85.378 55.1727 86.7933 54.454 88.04C53.7353 89.272 52.7233 90.24 51.418 90.944C50.1127 91.648 48.5727 92 46.798 92H41.452ZM44.862 89.03H46.886C47.9567 89.03 48.8807 88.8173 49.658 88.392C50.4353 87.952 51.0367 87.3433 51.462 86.566C51.902 85.774 52.122 84.85 52.122 83.794C52.122 82.7233 51.902 81.7993 51.462 81.022C51.0367 80.2447 50.4353 79.6433 49.658 79.218C48.8807 78.7927 47.9567 78.58 46.886 78.58H44.862V89.03ZM57.7157 92V75.61H68.7377V78.58H61.1257V82.298H68.2977V85.268H61.1257V89.03H68.7377V92H57.7157ZM75.0708 92L69.4608 75.61H73.2008L77.4248 88.766H76.6768L80.9008 75.61H84.6408L79.0308 92H75.0708ZM86.3329 92V75.61H97.3549V78.58H89.7429V82.298H96.9149V85.268H89.7429V89.03H97.3549V92H86.3329ZM99.2879 92V75.61H102.698V89.03H109.628V92H99.2879ZM119.096 92.264C117.864 92.264 116.72 92.0513 115.664 91.626C114.608 91.2007 113.684 90.6067 112.892 89.844C112.114 89.0667 111.506 88.1647 111.066 87.138C110.626 86.1113 110.406 84.9967 110.406 83.794C110.406 82.5913 110.618 81.4767 111.044 80.45C111.484 79.4233 112.092 78.5287 112.87 77.766C113.662 77.0033 114.586 76.4093 115.642 75.984C116.698 75.5587 117.849 75.346 119.096 75.346C120.342 75.346 121.494 75.5587 122.55 75.984C123.606 76.4093 124.522 77.0033 125.3 77.766C126.092 78.5287 126.7 79.4233 127.126 80.45C127.566 81.4767 127.786 82.5913 127.786 83.794C127.786 84.9967 127.566 86.1113 127.126 87.138C126.686 88.1647 126.07 89.0667 125.278 89.844C124.5 90.6067 123.584 91.2007 122.528 91.626C121.472 92.0513 120.328 92.264 119.096 92.264ZM119.096 89.184C119.844 89.184 120.533 89.052 121.164 88.788C121.809 88.524 122.374 88.1573 122.858 87.688C123.342 87.204 123.716 86.632 123.98 85.972C124.244 85.312 124.376 84.586 124.376 83.794C124.376 83.002 124.244 82.2833 123.98 81.638C123.716 80.978 123.342 80.406 122.858 79.922C122.374 79.438 121.809 79.0713 121.164 78.822C120.533 78.558 119.844 78.426 119.096 78.426C118.348 78.426 117.651 78.558 117.006 78.822C116.375 79.0713 115.818 79.438 115.334 79.922C114.85 80.406 114.476 80.978 114.212 81.638C113.948 82.2833 113.816 83.002 113.816 83.794C113.816 84.586 113.948 85.312 114.212 85.972C114.476 86.632 114.85 87.204 115.334 87.688C115.818 88.1573 116.375 88.524 117.006 88.788C117.651 89.052 118.348 89.184 119.096 89.184ZM130.204 92V75.61H136.496C137.625 75.61 138.623 75.808 139.488 76.204C140.368 76.6 141.057 77.1867 141.556 77.964C142.055 78.7413 142.304 79.702 142.304 80.846C142.304 81.9607 142.047 82.9067 141.534 83.684C141.035 84.4613 140.346 85.0553 139.466 85.466C138.601 85.862 137.611 86.06 136.496 86.06H133.614V92H130.204ZM133.614 83.09H136.518C137.002 83.09 137.42 82.9947 137.772 82.804C138.124 82.6133 138.395 82.3493 138.586 82.012C138.791 81.6747 138.894 81.286 138.894 80.846C138.894 80.3913 138.791 79.9953 138.586 79.658C138.395 79.3207 138.124 79.0567 137.772 78.866C137.42 78.6753 137.002 78.58 136.518 78.58H133.614V83.09ZM144.491 92V75.61H147.791L153.929 83.75H152.389L158.351 75.61H161.651V92H158.241V79.372L159.605 79.68L153.291 87.82H152.851L146.757 79.68L147.901 79.372V92H144.491ZM164.557 92V75.61H175.579V78.58H167.967V82.298H175.139V85.268H167.967V89.03H175.579V92H164.557ZM177.513 92V75.61H180.131L188.931 87.204L187.523 87.534V75.61H190.933V92H188.293L179.647 80.318L180.923 79.988V92H177.513ZM196.789 92V78.58H192.631V75.61H204.291V78.58H200.199V92H196.789ZM215.894 92.264C214.868 92.264 213.9 92.0807 212.99 91.714C212.096 91.3327 211.318 90.7973 210.658 90.108C210.013 89.4187 209.529 88.6047 209.206 87.666L212 86.412C212.411 87.3067 212.976 88.0107 213.694 88.524C214.428 89.0373 215.234 89.294 216.114 89.294C216.584 89.294 216.987 89.2207 217.324 89.074C217.662 88.9273 217.926 88.7293 218.116 88.48C218.307 88.216 218.402 87.908 218.402 87.556C218.402 87.1747 218.285 86.852 218.05 86.588C217.816 86.3093 217.449 86.0893 216.95 85.928L213.738 84.872C212.433 84.4467 211.45 83.8453 210.79 83.068C210.13 82.276 209.8 81.33 209.8 80.23C209.8 79.262 210.035 78.4113 210.504 77.678C210.988 76.9447 211.656 76.3727 212.506 75.962C213.372 75.5513 214.362 75.346 215.476 75.346C216.459 75.346 217.368 75.5147 218.204 75.852C219.04 76.1893 219.759 76.666 220.36 77.282C220.976 77.898 221.438 78.6387 221.746 79.504L218.974 80.758C218.666 79.9953 218.204 79.4013 217.588 78.976C216.972 78.536 216.268 78.316 215.476 78.316C215.022 78.316 214.618 78.3893 214.266 78.536C213.914 78.6827 213.643 78.8953 213.452 79.174C213.262 79.438 213.166 79.746 213.166 80.098C213.166 80.4793 213.291 80.8167 213.54 81.11C213.79 81.3887 214.164 81.6087 214.662 81.77L217.808 82.782C219.128 83.2073 220.111 83.8013 220.756 84.564C221.416 85.3267 221.746 86.258 221.746 87.358C221.746 88.3113 221.497 89.162 220.998 89.91C220.5 90.6433 219.81 91.2227 218.93 91.648C218.065 92.0587 217.053 92.264 215.894 92.264ZM232.383 92.264C231.151 92.264 230.007 92.0513 228.951 91.626C227.895 91.2007 226.971 90.6067 226.179 89.844C225.401 89.0667 224.793 88.1647 224.353 87.138C223.913 86.1113 223.693 84.9967 223.693 83.794C223.693 82.5913 223.905 81.4767 224.331 80.45C224.771 79.4233 225.379 78.5287 226.157 77.766C226.949 77.0033 227.873 76.4093 228.929 75.984C229.985 75.5587 231.136 75.346 232.383 75.346C233.629 75.346 234.781 75.5587 235.837 75.984C236.893 76.4093 237.809 77.0033 238.587 77.766C239.379 78.5287 239.987 79.4233 240.413 80.45C240.853 81.4767 241.073 82.5913 241.073 83.794C241.073 84.9967 240.853 86.1113 240.413 87.138C239.973 88.1647 239.357 89.0667 238.565 89.844C237.787 90.6067 236.871 91.2007 235.815 91.626C234.759 92.0513 233.615 92.264 232.383 92.264ZM232.383 89.184C233.131 89.184 233.82 89.052 234.451 88.788C235.096 88.524 235.661 88.1573 236.145 87.688C236.629 87.204 237.003 86.632 237.267 85.972C237.531 85.312 237.663 84.586 237.663 83.794C237.663 83.002 237.531 82.2833 237.267 81.638C237.003 80.978 236.629 80.406 236.145 79.922C235.661 79.438 235.096 79.0713 234.451 78.822C233.82 78.558 233.131 78.426 232.383 78.426C231.635 78.426 230.938 78.558 230.293 78.822C229.662 79.0713 229.105 79.438 228.621 79.922C228.137 80.406 227.763 80.978 227.499 81.638C227.235 82.2833 227.103 83.002 227.103 83.794C227.103 84.586 227.235 85.312 227.499 85.972C227.763 86.632 228.137 87.204 228.621 87.688C229.105 88.1573 229.662 88.524 230.293 88.788C230.938 89.052 231.635 89.184 232.383 89.184ZM243.491 92V75.61H246.901V89.03H253.831V92H243.491ZM261.605 92.264C260.314 92.264 259.163 91.9927 258.151 91.45C257.139 90.9073 256.339 90.1667 255.753 89.228C255.181 88.2747 254.895 87.1967 254.895 85.994V75.61H258.305V85.774C258.305 86.4193 258.444 87.006 258.723 87.534C259.016 88.0473 259.412 88.4507 259.911 88.744C260.409 89.0373 260.974 89.184 261.605 89.184C262.25 89.184 262.815 89.0373 263.299 88.744C263.797 88.4507 264.186 88.0473 264.465 87.534C264.758 87.006 264.905 86.4193 264.905 85.774V75.61H268.315V85.994C268.315 87.1967 268.021 88.2747 267.435 89.228C266.863 90.1667 266.071 90.9073 265.059 91.45C264.047 91.9927 262.895 92.264 261.605 92.264ZM273.961 92V78.58H269.803V75.61H281.463V78.58H277.371V92H273.961ZM283.151 92V75.61H286.561V92H283.151ZM297.674 92.264C296.442 92.264 295.298 92.0513 294.242 91.626C293.186 91.2007 292.262 90.6067 291.47 89.844C290.692 89.0667 290.084 88.1647 289.644 87.138C289.204 86.1113 288.984 84.9967 288.984 83.794C288.984 82.5913 289.196 81.4767 289.622 80.45C290.062 79.4233 290.67 78.5287 291.448 77.766C292.24 77.0033 293.164 76.4093 294.22 75.984C295.276 75.5587 296.427 75.346 297.674 75.346C298.92 75.346 300.072 75.5587 301.128 75.984C302.184 76.4093 303.1 77.0033 303.878 77.766C304.67 78.5287 305.278 79.4233 305.704 80.45C306.144 81.4767 306.364 82.5913 306.364 83.794C306.364 84.9967 306.144 86.1113 305.704 87.138C305.264 88.1647 304.648 89.0667 303.856 89.844C303.078 90.6067 302.162 91.2007 301.106 91.626C300.05 92.0513 298.906 92.264 297.674 92.264ZM297.674 89.184C298.422 89.184 299.111 89.052 299.742 88.788C300.387 88.524 300.952 88.1573 301.436 87.688C301.92 87.204 302.294 86.632 302.558 85.972C302.822 85.312 302.954 84.586 302.954 83.794C302.954 83.002 302.822 82.2833 302.558 81.638C302.294 80.978 301.92 80.406 301.436 79.922C300.952 79.438 300.387 79.0713 299.742 78.822C299.111 78.558 298.422 78.426 297.674 78.426C296.926 78.426 296.229 78.558 295.584 78.822C294.953 79.0713 294.396 79.438 293.912 79.922C293.428 80.406 293.054 80.978 292.79 81.638C292.526 82.2833 292.394 83.002 292.394 83.794C292.394 84.586 292.526 85.312 292.79 85.972C293.054 86.632 293.428 87.204 293.912 87.688C294.396 88.1573 294.953 88.524 295.584 88.788C296.229 89.052 296.926 89.184 297.674 89.184ZM308.782 92V75.61H311.4L320.2 87.204L318.792 87.534V75.61H322.202V92H319.562L310.916 80.318L312.192 79.988V92H308.782ZM331.072 92.264C330.046 92.264 329.078 92.0807 328.168 91.714C327.274 91.3327 326.496 90.7973 325.836 90.108C325.191 89.4187 324.707 88.6047 324.384 87.666L327.178 86.412C327.589 87.3067 328.154 88.0107 328.872 88.524C329.606 89.0373 330.412 89.294 331.292 89.294C331.762 89.294 332.165 89.2207 332.502 89.074C332.84 88.9273 333.104 88.7293 333.294 88.48C333.485 88.216 333.58 87.908 333.58 87.556C333.58 87.1747 333.463 86.852 333.228 86.588C332.994 86.3093 332.627 86.0893 332.128 85.928L328.916 84.872C327.611 84.4467 326.628 83.8453 325.968 83.068C325.308 82.276 324.978 81.33 324.978 80.23C324.978 79.262 325.213 78.4113 325.682 77.678C326.166 76.9447 326.834 76.3727 327.684 75.962C328.55 75.5513 329.54 75.346 330.654 75.346C331.637 75.346 332.546 75.5147 333.382 75.852C334.218 76.1893 334.937 76.666 335.538 77.282C336.154 77.898 336.616 78.6387 336.924 79.504L334.152 80.758C333.844 79.9953 333.382 79.4013 332.766 78.976C332.15 78.536 331.446 78.316 330.654 78.316C330.2 78.316 329.796 78.3893 329.444 78.536C329.092 78.6827 328.821 78.8953 328.63 79.174C328.44 79.438 328.344 79.746 328.344 80.098C328.344 80.4793 328.469 80.8167 328.718 81.11C328.968 81.3887 329.342 81.6087 329.84 81.77L332.986 82.782C334.306 83.2073 335.289 83.8013 335.934 84.564C336.594 85.3267 336.924 86.258 336.924 87.358C336.924 88.3113 336.675 89.162 336.176 89.91C335.678 90.6433 334.988 91.2227 334.108 91.648C333.243 92.0587 332.231 92.264 331.072 92.264Z" fill="#2C313F"/>
</svg>
