<svg width="190" height="62" viewBox="0 0 190 62" fill="none" xmlns="http://www.w3.org/2000/svg">
<rect width="190" height="62" rx="31" transform="matrix(1 1.74846e-07 1.74846e-07 -1 0 62)" fill="#2C313F"/>
<rect width="50" height="50" rx="25" transform="matrix(1 1.74846e-07 1.74846e-07 -1 134 56)" fill="#5AC4FF"/>
<path d="M28.296 38V24.59H30.744V35.84H36.486V38H28.296ZM38.0694 38V24.59H46.9794V26.75H40.5174V30.188H46.6194V32.348H40.5174V35.84H46.9794V38H38.0694ZM51.1505 38V26.75H47.6765V24.59H57.0365V26.75H53.6165V38H51.1505ZM59.0884 29.738V28.568C59.4844 28.472 59.8024 28.298 60.0424 28.046C60.2944 27.782 60.4504 27.47 60.5104 27.11H59.4484V24.59H61.8244V26.138C61.8244 27.11 61.5904 27.908 61.1224 28.532C60.6664 29.144 59.9884 29.546 59.0884 29.738ZM69.752 38.216C68.9 38.216 68.108 38.06 67.376 37.748C66.656 37.436 66.032 37.004 65.504 36.452C64.988 35.888 64.61 35.234 64.37 34.49L66.404 33.608C66.728 34.376 67.196 34.982 67.808 35.426C68.42 35.858 69.11 36.074 69.878 36.074C70.31 36.074 70.682 36.008 70.994 35.876C71.318 35.732 71.564 35.54 71.732 35.3C71.912 35.06 72.002 34.772 72.002 34.436C72.002 34.04 71.882 33.716 71.642 33.464C71.414 33.2 71.066 32.996 70.598 32.852L68.024 32.024C66.98 31.7 66.194 31.214 65.666 30.566C65.138 29.918 64.874 29.156 64.874 28.28C64.874 27.512 65.06 26.834 65.432 26.246C65.816 25.658 66.344 25.202 67.016 24.878C67.7 24.542 68.48 24.374 69.356 24.374C70.16 24.374 70.898 24.518 71.57 24.806C72.242 25.082 72.818 25.472 73.298 25.976C73.79 26.468 74.156 27.05 74.396 27.722L72.38 28.622C72.116 27.95 71.72 27.434 71.192 27.074C70.664 26.702 70.052 26.516 69.356 26.516C68.948 26.516 68.588 26.588 68.276 26.732C67.964 26.864 67.718 27.056 67.538 27.308C67.37 27.548 67.286 27.836 67.286 28.172C67.286 28.544 67.406 28.874 67.646 29.162C67.886 29.438 68.252 29.654 68.744 29.81L71.21 30.584C72.278 30.932 73.076 31.412 73.604 32.024C74.144 32.636 74.414 33.392 74.414 34.292C74.414 35.06 74.216 35.738 73.82 36.326C73.424 36.914 72.878 37.376 72.182 37.712C71.486 38.048 70.676 38.216 69.752 38.216ZM82.1935 38V26.75H78.7195V24.59H88.0795V26.75H84.6595V38H82.1935ZM87.5789 38L92.2049 24.59H95.3729L99.9989 38H97.3349L96.3809 35.12H91.1969L90.2249 38H87.5789ZM91.8989 32.96H95.6789L93.4469 26.282H94.1309L91.8989 32.96ZM101.491 38V24.59H103.939V35.84H109.681V38H101.491ZM111.265 38V24.59H113.713V31.574L113.047 31.34L118.753 24.59H121.831L116.485 30.926L116.629 29.198L121.993 38H119.113L115.513 32.096L113.713 34.238V38H111.265Z" fill="white"/>
<path d="M165.242 25.7579C165.242 25.2056 164.794 24.7579 164.242 24.7579L155.242 24.7579C154.689 24.7579 154.242 25.2056 154.242 25.7579C154.242 26.3102 154.689 26.7579 155.242 26.7579L163.242 26.7579L163.242 34.7579C163.242 35.3102 163.689 35.7579 164.242 35.7579C164.794 35.7579 165.242 35.3102 165.242 34.7579L165.242 25.7579ZM154.062 37.3521L164.949 26.465L163.534 25.0508L152.647 35.9379L154.062 37.3521Z" fill="#2C313F"/>
</svg>
