<svg width="42" height="42" viewBox="0 0 42 42" fill="none" xmlns="http://www.w3.org/2000/svg">
<path d="M21 19.25C22.933 19.25 24.5 17.683 24.5 15.75C24.5 13.817 22.933 12.25 21 12.25C19.067 12.25 17.5 13.817 17.5 15.75C17.5 17.683 19.067 19.25 21 19.25Z" fill="#EBECF0" stroke="#EBECF0" stroke-width="2" stroke-linecap="round" stroke-linejoin="round"/>
<path d="M21 36.75C21 36.75 33.25 28.2692 33.25 17.3654C33.25 14.1522 31.9594 11.0706 29.6621 8.79851C27.3647 6.52644 24.2489 5.25 21 5.25C17.7511 5.25 14.6353 6.52644 12.3379 8.79851C10.0406 11.0706 8.75 14.1522 8.75 17.3654C8.75 28.2692 21 36.75 21 36.75Z" fill="#2C313F" stroke="#2C313F" stroke-width="2" stroke-linecap="round" stroke-linejoin="round"/>
<circle cx="21" cy="15" r="5" fill="#D9D9D9"/>
</svg>
