<svg width="310" height="31" viewBox="0 0 310 31" fill="none" xmlns="http://www.w3.org/2000/svg">
<path d="M8.01797 13.5599H19.498V19.4399H8.01797V29.9999H0.81797V1.39989H22.098V7.27989H8.01797V13.5599Z" fill="white"/>
<path d="M49.0302 19.6799C49.0302 23.2266 48.1102 25.9466 46.2702 27.8399C44.4568 29.7066 41.3902 30.6399 37.0702 30.6399C32.7502 30.6399 29.6702 29.7066 27.8302 27.8399C26.0168 25.9466 25.1102 23.2266 25.1102 19.6799V1.39989H32.3102V19.6799C32.3102 21.5466 32.7102 22.8666 33.5102 23.6399C34.3102 24.3866 35.4968 24.7599 37.0702 24.7599C38.6435 24.7599 39.8302 24.3866 40.6302 23.6399C41.4302 22.8666 41.8302 21.5466 41.8302 19.6799V1.39989H49.0302V19.6799Z" fill="white"/>
<path d="M60.5105 29.9999V7.27989H52.1905V1.39989H75.9905V7.27989H67.7105V29.9999H60.5105Z" fill="white"/>
<path d="M103.054 19.6799C103.054 23.2266 102.134 25.9466 100.294 27.8399C98.4803 29.7066 95.4136 30.6399 91.0936 30.6399C86.7736 30.6399 83.6936 29.7066 81.8536 27.8399C80.0403 25.9466 79.1336 23.2266 79.1336 19.6799V1.39989H86.3336V19.6799C86.3336 21.5466 86.7336 22.8666 87.5336 23.6399C88.3336 24.3866 89.5203 24.7599 91.0936 24.7599C92.6669 24.7599 93.8536 24.3866 94.6536 23.6399C95.4536 22.8666 95.8536 21.5466 95.8536 19.6799V1.39989H103.054V19.6799Z" fill="white"/>
<path d="M107.654 29.9999V1.39989H121.134C124.307 1.39989 126.801 2.10655 128.614 3.51989C130.427 4.93322 131.334 6.94655 131.334 9.55989C131.334 11.5599 130.814 13.1599 129.774 14.3599C128.734 15.5332 127.321 16.3199 125.534 16.7199V16.7999C126.734 17.0132 127.681 17.4666 128.374 18.1599C129.067 18.8266 129.587 19.6266 129.934 20.5599C130.307 21.4932 130.561 22.4666 130.694 23.4799C130.827 24.4932 130.921 25.4532 130.974 26.3599C131.027 27.2666 131.094 28.0132 131.174 28.5999C131.281 29.1866 131.467 29.5199 131.734 29.5999V29.9999H124.254C124.014 29.7866 123.867 29.4132 123.814 28.8799C123.761 28.3199 123.721 27.6666 123.694 26.9199C123.694 26.1466 123.654 25.3599 123.574 24.5599C123.494 23.7599 123.307 23.0266 123.014 22.3599C122.747 21.6666 122.321 21.1066 121.734 20.6799C121.147 20.2532 120.347 20.0399 119.334 20.0399H114.854V29.9999H107.654ZM114.854 7.27989V14.1599H119.734C121.174 14.1599 122.267 13.8932 123.014 13.3599C123.761 12.7999 124.134 11.9199 124.134 10.7199C124.134 9.51989 123.761 8.65322 123.014 8.11989C122.267 7.55989 121.174 7.27989 119.734 7.27989H114.854Z" fill="white"/>
<path d="M142.627 12.3599H155.107V18.2399H142.627V24.1199H157.347V29.9999H135.427V1.39989H157.107V7.27989H142.627V12.3599Z" fill="white"/>
<path d="M171.57 14.3199C173.757 14.7199 175.584 15.2399 177.05 15.8799C178.517 16.4932 179.61 17.3332 180.33 18.3999C181.077 19.4399 181.45 20.8132 181.45 22.5199C181.45 23.9599 181.077 25.2799 180.33 26.4799C179.584 27.6799 178.49 28.6399 177.05 29.3599C175.637 30.0799 173.904 30.4399 171.85 30.4399C169.77 30.4399 167.877 30.0932 166.17 29.3999C164.464 28.6799 163.09 27.6132 162.05 26.1999C161.037 24.7599 160.464 22.9599 160.33 20.7999H161.69C161.877 23.5466 162.864 25.6532 164.65 27.1199C166.464 28.5866 168.864 29.3199 171.85 29.3199C173.717 29.3199 175.25 29.0132 176.45 28.3999C177.65 27.7599 178.557 26.9199 179.17 25.8799C179.784 24.8399 180.09 23.7199 180.09 22.5199C180.117 20.8932 179.757 19.6266 179.01 18.7199C178.264 17.8132 177.157 17.1066 175.69 16.5999C174.224 16.0932 172.384 15.6399 170.17 15.2399C168.357 14.8932 166.797 14.4532 165.49 13.9199C164.184 13.3599 163.184 12.5999 162.49 11.6399C161.797 10.6799 161.45 9.42655 161.45 7.87989C161.45 6.35989 161.85 5.09322 162.65 4.07989C163.45 3.03989 164.53 2.26655 165.89 1.75989C167.277 1.25322 168.837 0.999887 170.57 0.999887C173.397 0.97322 175.69 1.66655 177.45 3.07989C179.21 4.46655 180.184 6.46655 180.37 9.07989H179.01C178.824 6.94655 178.037 5.25322 176.65 3.99989C175.29 2.71989 173.264 2.09322 170.57 2.11989C168.224 2.11989 166.344 2.62655 164.93 3.63989C163.517 4.65322 162.81 6.06655 162.81 7.87989C162.81 9.37322 163.157 10.5199 163.85 11.3199C164.57 12.1199 165.584 12.7332 166.89 13.1599C168.197 13.5866 169.757 13.9732 171.57 14.3199Z" fill="white"/>
<path d="M206.505 20.0799C206.505 23.3866 205.678 25.9466 204.025 27.7599C202.398 29.5466 199.798 30.4399 196.225 30.4399C192.651 30.4399 190.038 29.5466 188.385 27.7599C186.758 25.9466 185.945 23.3866 185.945 20.0799V1.39989H187.225V20.0799C187.225 26.2399 190.225 29.3199 196.225 29.3199C202.225 29.3199 205.225 26.2399 205.225 20.0799V1.39989H206.505V20.0799Z" fill="white"/>
<path d="M212.316 29.9999V1.39989H222.476C224.236 1.39989 225.796 1.66655 227.156 2.19989C228.516 2.70655 229.583 3.55989 230.356 4.75989C231.13 5.93322 231.516 7.51989 231.516 9.51989C231.516 11.5199 231.13 13.1199 230.356 14.3199C229.583 15.4932 228.516 16.3466 227.156 16.8799C225.796 17.3866 224.236 17.6399 222.476 17.6399H213.596V29.9999H212.316ZM213.596 16.5199H222.836C225.103 16.5199 226.89 15.9599 228.196 14.8399C229.503 13.7199 230.156 11.9466 230.156 9.51989C230.156 7.06655 229.503 5.29322 228.196 4.19989C226.89 3.07989 225.103 2.51989 222.836 2.51989H213.596V16.5199Z" fill="white"/>
<path d="M235.832 29.9999V1.39989H245.992C247.752 1.39989 249.312 1.66655 250.672 2.19989C252.032 2.70655 253.099 3.55989 253.872 4.75989C254.645 5.93322 255.032 7.51989 255.032 9.51989C255.032 11.5199 254.645 13.1199 253.872 14.3199C253.099 15.4932 252.032 16.3466 250.672 16.8799C249.312 17.3866 247.752 17.6399 245.992 17.6399H237.112V29.9999H235.832ZM237.112 16.5199H246.352C248.619 16.5199 250.405 15.9599 251.712 14.8399C253.019 13.7199 253.672 11.9466 253.672 9.51989C253.672 7.06655 253.019 5.29322 251.712 4.19989C250.405 3.07989 248.619 2.51989 246.352 2.51989H237.112V16.5199Z" fill="white"/>
<path d="M259.348 1.39989H260.628V28.8799H277.028V29.9999H259.348V1.39989Z" fill="white"/>
<path d="M273.474 1.39989H274.954L284.594 17.0799H284.754L294.474 1.39989H295.874L285.274 18.2799V29.9999H283.994V18.2799L273.474 1.39989Z" fill="white"/>
<path d="M302.18 8.96989V2.96389H303.972C304.532 2.96389 304.98 3.02455 305.316 3.14589C305.661 3.26722 305.909 3.45855 306.058 3.71989C306.217 3.97189 306.296 4.29855 306.296 4.69989C306.296 5.06389 306.193 5.37655 305.988 5.63789C305.783 5.89922 305.475 6.10922 305.064 6.26789L306.744 8.96989H305.624L304.182 6.51989H303.146V8.96989H302.18ZM303.146 5.77789H303.972C304.411 5.77789 304.737 5.68922 304.952 5.51189C305.176 5.33455 305.288 5.07322 305.288 4.72789C305.288 4.33589 305.167 4.07455 304.924 3.94389C304.691 3.80389 304.355 3.73389 303.916 3.73389H303.146V5.77789ZM304 11.7699C303.207 11.7699 302.46 11.6206 301.76 11.3219C301.06 11.0232 300.444 10.6126 299.912 10.0899C299.389 9.55789 298.979 8.94189 298.68 8.24189C298.381 7.54189 298.232 6.79522 298.232 6.00189C298.232 5.19922 298.381 4.45255 298.68 3.76189C298.979 3.06189 299.389 2.45055 299.912 1.92789C300.444 1.39589 301.06 0.980554 301.76 0.681887C302.46 0.38322 303.207 0.233887 304 0.233887C304.803 0.233887 305.549 0.38322 306.24 0.681887C306.94 0.980554 307.551 1.39589 308.074 1.92789C308.606 2.45055 309.021 3.06189 309.32 3.76189C309.619 4.45255 309.768 5.19922 309.768 6.00189C309.768 6.79522 309.619 7.54189 309.32 8.24189C309.021 8.94189 308.606 9.55789 308.074 10.0899C307.551 10.6126 306.94 11.0232 306.24 11.3219C305.549 11.6206 304.803 11.7699 304 11.7699ZM304 10.9859C304.691 10.9859 305.335 10.8599 305.932 10.6079C306.539 10.3466 307.071 9.98722 307.528 9.52989C307.985 9.07255 308.34 8.54522 308.592 7.94789C308.853 7.34122 308.984 6.69255 308.984 6.00189C308.984 5.31122 308.853 4.66722 308.592 4.06989C308.34 3.46322 307.985 2.93122 307.528 2.47389C307.071 2.01655 306.539 1.66189 305.932 1.40989C305.335 1.14855 304.691 1.01789 304 1.01789C303.309 1.01789 302.661 1.14855 302.054 1.40989C301.457 1.66189 300.929 2.01655 300.472 2.47389C300.015 2.93122 299.655 3.46322 299.394 4.06989C299.142 4.66722 299.016 5.31122 299.016 6.00189C299.016 6.69255 299.142 7.34122 299.394 7.94789C299.655 8.54522 300.015 9.07255 300.472 9.52989C300.929 9.98722 301.457 10.3466 302.054 10.6079C302.661 10.8599 303.309 10.9859 304 10.9859Z" fill="white"/>
</svg>
