<svg width="105" height="105" viewBox="0 0 105 105" fill="none" xmlns="http://www.w3.org/2000/svg">
<path d="M49.0616 0.0282559C48.8358 0.0487807 48.1173 0.120618 47.4707 0.17193C32.5572 1.51631 18.588 9.56205 9.74047 21.9283C4.81378 28.8041 1.66276 36.6035 0.472141 44.8648C0.0513196 47.7485 0 48.6003 0 52.5103C0 56.4203 0.0513196 57.272 0.472141 60.1558C3.32551 79.8699 17.3563 96.4334 36.3856 102.57C39.7933 103.668 43.3856 104.418 47.4707 104.869C49.0616 105.044 55.9384 105.044 57.5293 104.869C64.5806 104.089 70.5543 102.345 76.4457 99.3377C77.349 98.8759 77.5235 98.7528 77.4003 98.6501C77.3182 98.5886 73.4692 93.4266 68.8504 87.187L60.4545 75.847L49.934 60.2789C44.1452 51.7201 39.3827 44.7211 39.3416 44.7211C39.3006 44.7108 39.2595 51.6277 39.239 60.0737C39.2082 74.8618 39.1979 75.4571 39.0132 75.806C38.7463 76.3088 38.5411 76.5141 38.11 76.7399C37.7815 76.9041 37.4941 76.9348 35.9443 76.9348H34.1686L33.6965 76.6372C33.3886 76.4422 33.1628 76.1857 33.0088 75.8881L32.7933 75.4263L32.8138 54.8501L32.8446 34.2637L33.1628 33.8635C33.327 33.6479 33.676 33.3709 33.9223 33.2375C34.3431 33.0322 34.5073 33.0117 36.283 33.0117C38.3768 33.0117 38.7258 33.0938 39.2698 33.689C39.4238 33.8532 45.1202 42.4326 51.9355 52.7668C58.7507 63.1011 68.0704 77.2119 72.6481 84.1391L80.9619 96.7311L81.3827 96.454C85.1085 94.032 89.0499 90.5839 92.1701 86.992C98.8108 79.367 103.091 70.0693 104.528 60.1558C104.949 57.272 105 56.4203 105 52.5103C105 48.6003 104.949 47.7485 104.528 44.8648C101.674 25.1507 87.6437 8.58712 68.6144 2.45019C65.2581 1.36237 61.6862 0.613214 57.6833 0.161667C56.6979 0.0590431 49.9135 -0.0538435 49.0616 0.0282559ZM70.5543 31.7802C71.0469 32.0265 71.4472 32.4986 71.5909 32.9912C71.673 33.258 71.6935 38.9639 71.673 51.8227L71.6422 70.2745L68.3886 65.287L65.1246 60.2995V46.8865C65.1246 38.2147 65.1657 33.3401 65.2273 33.104C65.3915 32.5293 65.7507 32.0778 66.2434 31.811C66.6642 31.5955 66.8182 31.5749 68.4296 31.5749C69.9487 31.5749 70.2155 31.5955 70.5543 31.7802Z" fill="black"/>
</svg>
