<svg width="239" height="62" viewBox="0 0 239 62" fill="none" xmlns="http://www.w3.org/2000/svg">
<rect width="239" height="62" rx="31" transform="matrix(1 1.74846e-07 1.74846e-07 -1 0.000244141 62)" fill="#2C313F"/>
<path d="M27.1982 38L31.8242 24.59H34.9922L39.6182 38H36.9542L36.0002 35.12H30.8162L29.8442 38H27.1982ZM31.5182 32.96H35.2982L33.0662 26.282H33.7502L31.5182 32.96ZM41.1107 38V24.59H43.5587V35.84H49.3007V38H41.1107ZM50.8841 38V24.59H53.3321V35.84H59.0741V38H50.8841ZM63.8568 38V24.59H68.8608C69.7728 24.59 70.5768 24.758 71.2728 25.094C71.9808 25.418 72.5328 25.898 72.9288 26.534C73.3248 27.158 73.5228 27.92 73.5228 28.82C73.5228 29.708 73.3188 30.47 72.9108 31.106C72.5148 31.73 71.9688 32.21 71.2728 32.546C70.5768 32.882 69.7728 33.05 68.8608 33.05H66.3048V38H63.8568ZM66.3048 30.89H68.8968C69.3408 30.89 69.7248 30.806 70.0488 30.638C70.3728 30.458 70.6248 30.212 70.8048 29.9C70.9848 29.588 71.0748 29.228 71.0748 28.82C71.0748 28.4 70.9848 28.04 70.8048 27.74C70.6248 27.428 70.3728 27.188 70.0488 27.02C69.7248 26.84 69.3408 26.75 68.8968 26.75H66.3048V30.89ZM75.5287 38V24.59H80.5147C81.4267 24.59 82.2307 24.758 82.9267 25.094C83.6347 25.418 84.1867 25.898 84.5827 26.534C84.9787 27.158 85.1767 27.92 85.1767 28.82C85.1767 29.744 84.9547 30.53 84.5107 31.178C84.0787 31.826 83.4907 32.306 82.7467 32.618L85.8247 38H83.0527L79.7587 32.114L81.3427 33.05H77.9767V38H75.5287ZM77.9767 30.89H80.5507C80.9947 30.89 81.3787 30.806 81.7027 30.638C82.0267 30.458 82.2787 30.212 82.4587 29.9C82.6387 29.588 82.7287 29.228 82.7287 28.82C82.7287 28.4 82.6387 28.04 82.4587 27.74C82.2787 27.428 82.0267 27.188 81.7027 27.02C81.3787 26.84 80.9947 26.75 80.5507 26.75H77.9767V30.89ZM94.0351 38.216C93.0511 38.216 92.1331 38.042 91.2811 37.694C90.4291 37.346 89.6851 36.86 89.0491 36.236C88.4131 35.612 87.9151 34.88 87.5551 34.04C87.2071 33.188 87.0331 32.27 87.0331 31.286C87.0331 30.29 87.2071 29.372 87.5551 28.532C87.9031 27.692 88.3951 26.96 89.0311 26.336C89.6671 25.712 90.4111 25.232 91.2631 24.896C92.1151 24.548 93.0391 24.374 94.0351 24.374C95.0311 24.374 95.9551 24.548 96.8071 24.896C97.6591 25.244 98.4031 25.73 99.0391 26.354C99.6751 26.966 100.167 27.692 100.515 28.532C100.875 29.372 101.055 30.29 101.055 31.286C101.055 32.27 100.875 33.188 100.515 34.04C100.155 34.88 99.6571 35.612 99.0211 36.236C98.3851 36.86 97.6411 37.346 96.7891 37.694C95.9491 38.042 95.0311 38.216 94.0351 38.216ZM94.0351 35.984C94.6951 35.984 95.3011 35.87 95.8531 35.642C96.4051 35.402 96.8851 35.072 97.2931 34.652C97.7131 34.232 98.0311 33.734 98.2471 33.158C98.4751 32.582 98.5891 31.958 98.5891 31.286C98.5891 30.614 98.4751 29.996 98.2471 29.432C98.0311 28.856 97.7131 28.358 97.2931 27.938C96.8851 27.506 96.4051 27.176 95.8531 26.948C95.3011 26.72 94.6951 26.606 94.0351 26.606C93.3871 26.606 92.7871 26.72 92.2351 26.948C91.6831 27.176 91.1971 27.506 90.7771 27.938C90.3691 28.358 90.0511 28.856 89.8231 29.432C89.5951 29.996 89.4811 30.614 89.4811 31.286C89.4811 31.958 89.5951 32.582 89.8231 33.158C90.0511 33.734 90.3691 34.232 90.7771 34.652C91.1971 35.072 91.6831 35.402 92.2351 35.642C92.7871 35.87 93.3871 35.984 94.0351 35.984ZM102.638 38V35.75H103.412C103.988 35.75 104.444 35.588 104.78 35.264C105.128 34.928 105.302 34.484 105.302 33.932V24.59H107.768V33.842C107.768 34.67 107.588 35.396 107.228 36.02C106.88 36.644 106.376 37.13 105.716 37.478C105.068 37.826 104.3 38 103.412 38H102.638ZM110.298 38V24.59H119.208V26.75H112.746V30.188H118.848V32.348H112.746V35.84H119.208V38H110.298ZM127.303 38.216C126.343 38.216 125.455 38.042 124.639 37.694C123.835 37.346 123.127 36.86 122.515 36.236C121.915 35.612 121.447 34.88 121.111 34.04C120.775 33.2 120.607 32.282 120.607 31.286C120.607 30.29 120.769 29.372 121.093 28.532C121.429 27.68 121.897 26.948 122.497 26.336C123.109 25.712 123.823 25.232 124.639 24.896C125.455 24.548 126.343 24.374 127.303 24.374C128.263 24.374 129.121 24.536 129.877 24.86C130.645 25.184 131.293 25.616 131.821 26.156C132.349 26.684 132.727 27.266 132.955 27.902L130.759 28.928C130.507 28.256 130.081 27.704 129.481 27.272C128.881 26.828 128.155 26.606 127.303 26.606C126.463 26.606 125.719 26.804 125.071 27.2C124.435 27.596 123.937 28.142 123.577 28.838C123.229 29.534 123.055 30.35 123.055 31.286C123.055 32.222 123.229 33.044 123.577 33.752C123.937 34.448 124.435 34.994 125.071 35.39C125.719 35.786 126.463 35.984 127.303 35.984C128.155 35.984 128.881 35.768 129.481 35.336C130.081 34.892 130.507 34.334 130.759 33.662L132.955 34.688C132.727 35.324 132.349 35.912 131.821 36.452C131.293 36.98 130.645 37.406 129.877 37.73C129.121 38.054 128.263 38.216 127.303 38.216ZM137.319 38V26.75H133.845V24.59H143.205V26.75H139.785V38H137.319ZM149.487 38.216C148.635 38.216 147.843 38.06 147.111 37.748C146.391 37.436 145.767 37.004 145.239 36.452C144.723 35.888 144.345 35.234 144.105 34.49L146.139 33.608C146.463 34.376 146.931 34.982 147.543 35.426C148.155 35.858 148.845 36.074 149.613 36.074C150.045 36.074 150.417 36.008 150.729 35.876C151.053 35.732 151.299 35.54 151.467 35.3C151.647 35.06 151.737 34.772 151.737 34.436C151.737 34.04 151.617 33.716 151.377 33.464C151.149 33.2 150.801 32.996 150.333 32.852L147.759 32.024C146.715 31.7 145.929 31.214 145.401 30.566C144.873 29.918 144.609 29.156 144.609 28.28C144.609 27.512 144.795 26.834 145.167 26.246C145.551 25.658 146.079 25.202 146.751 24.878C147.435 24.542 148.215 24.374 149.091 24.374C149.895 24.374 150.633 24.518 151.305 24.806C151.977 25.082 152.553 25.472 153.033 25.976C153.525 26.468 153.891 27.05 154.131 27.722L152.115 28.622C151.851 27.95 151.455 27.434 150.927 27.074C150.399 26.702 149.787 26.516 149.091 26.516C148.683 26.516 148.323 26.588 148.011 26.732C147.699 26.864 147.453 27.056 147.273 27.308C147.105 27.548 147.021 27.836 147.021 28.172C147.021 28.544 147.141 28.874 147.381 29.162C147.621 29.438 147.987 29.654 148.479 29.81L150.945 30.584C152.013 30.932 152.811 31.412 153.339 32.024C153.879 32.636 154.149 33.392 154.149 34.292C154.149 35.06 153.951 35.738 153.555 36.326C153.159 36.914 152.613 37.376 151.917 37.712C151.221 38.048 150.411 38.216 149.487 38.216Z" fill="white"/>
<rect width="50" height="50" rx="25" transform="matrix(1 1.74846e-07 1.74846e-07 -1 183 56)" fill="#5AC4FF"/>
<path d="M214.242 25.7584C214.242 25.2062 213.794 24.7584 213.242 24.7584L204.242 24.7584C203.69 24.7584 203.242 25.2062 203.242 25.7584C203.242 26.3107 203.69 26.7584 204.242 26.7584L212.242 26.7584L212.242 34.7584C212.242 35.3107 212.69 35.7584 213.242 35.7584C213.794 35.7584 214.242 35.3107 214.242 34.7584L214.242 25.7584ZM203.062 37.3526L213.949 26.4655L212.535 25.0513L201.648 35.9384L203.062 37.3526Z" fill="#2C313F"/>
</svg>
