<svg width="131" height="83" viewBox="0 0 131 83" fill="none" xmlns="http://www.w3.org/2000/svg">
<path d="M1.47819 22.9912V1.3486H8.7406C10.1156 1.3486 11.326 1.61974 12.3718 2.16202C13.4176 2.7043 14.231 3.46929 14.812 4.45701C15.4123 5.44472 15.7125 6.58738 15.7125 7.88496C15.7125 9.43432 15.2865 10.761 14.4343 11.8649C13.6016 12.9494 12.4783 13.6951 11.0646 14.1018L16.1773 22.9912H13.9405L8.5663 13.5208L10.135 14.4213H3.36641V22.9912H1.47819ZM3.36641 12.6783H8.7987C9.78639 12.6783 10.6579 12.4846 11.4132 12.0973C12.1685 11.6906 12.7591 11.1289 13.1852 10.4124C13.6113 9.67641 13.8243 8.82426 13.8243 7.85591C13.8243 6.88756 13.6113 6.05478 13.1852 5.35757C12.7591 4.64099 12.1685 4.08903 11.4132 3.70169C10.6579 3.29499 9.78639 3.09163 8.7987 3.09163H3.36641V12.6783Z" fill="#2C313F"/>
<path d="M33.5692 23.3398C32.078 23.3398 30.6836 23.0687 29.386 22.5264C28.0885 21.9648 26.9459 21.1901 25.9582 20.2024C24.9899 19.1953 24.2249 18.0139 23.6633 16.6582C23.121 15.2832 22.8499 13.7822 22.8499 12.1554C22.8499 10.5092 23.121 9.00825 23.6633 7.65256C24.2249 6.29687 24.9995 5.12517 25.9872 4.13745C26.9749 3.13037 28.1079 2.35569 29.386 1.81341C30.6836 1.27114 32.078 1 33.5692 1C35.041 1 36.4257 1.27114 37.7233 1.81341C39.0208 2.35569 40.1538 3.13037 41.1221 4.13745C42.1098 5.12517 42.8844 6.30655 43.4461 7.68161C44.0077 9.0373 44.2885 10.5286 44.2885 12.1554C44.2885 13.7822 44.0077 15.2832 43.4461 16.6582C42.8844 18.0139 42.1098 19.1953 41.1221 20.2024C40.1538 21.1901 39.0208 21.9648 37.7233 22.5264C36.4257 23.0687 35.041 23.3398 33.5692 23.3398ZM33.5692 21.5387C34.8667 21.5387 36.0578 21.2966 37.1423 20.8124C38.2268 20.3283 39.1564 19.6504 39.9311 18.7789C40.7251 17.9074 41.3351 16.91 41.7612 15.7867C42.1873 14.644 42.4003 13.4336 42.4003 12.1554C42.4003 10.8965 42.1873 9.70546 41.7612 8.58218C41.3351 7.43952 40.7251 6.43244 39.9311 5.56093C39.1564 4.68941 38.2268 4.01157 37.1423 3.52739C36.0771 3.02385 34.8861 2.77208 33.5692 2.77208C32.2523 2.77208 31.0516 3.02385 29.967 3.52739C28.9019 4.01157 27.9723 4.68941 27.1783 5.56093C26.4036 6.43244 25.8033 7.43952 25.3772 8.58218C24.9511 9.70546 24.7381 10.8965 24.7381 12.1554C24.7381 13.4336 24.9511 14.644 25.3772 15.7867C25.8033 16.91 26.4036 17.9074 27.1783 18.7789C27.9723 19.6504 28.9116 20.3283 29.9961 20.8124C31.0806 21.2966 32.2716 21.5387 33.5692 21.5387Z" fill="#2C313F"/>
<path d="M62.2952 23.3398C60.804 23.3398 59.429 23.0687 58.1702 22.5264C56.9113 21.9648 55.8075 21.1804 54.8585 20.1733C53.9289 19.1662 53.2027 17.9848 52.6798 16.6292C52.1762 15.2735 51.9245 13.7822 51.9245 12.1554C51.9245 10.5479 52.1762 9.06635 52.6798 7.71066C53.2027 6.33561 53.9289 5.15422 54.8585 4.1665C55.8075 3.15942 56.9113 2.38474 58.1702 1.84246C59.429 1.28082 60.804 1 62.2952 1C63.7477 1 65.0549 1.26145 66.2169 1.78436C67.3789 2.30727 68.3569 2.97543 69.1509 3.78885C69.9449 4.60226 70.5163 5.44472 70.8649 6.31624L69.0928 7.1006C68.5118 5.80301 67.6307 4.7572 66.4493 3.96315C65.2873 3.1691 63.9026 2.77208 62.2952 2.77208C60.6491 2.77208 59.1772 3.1691 57.8797 3.96315C56.6015 4.7572 55.6041 5.86111 54.8875 7.2749C54.171 8.66933 53.8127 10.2962 53.8127 12.1554C53.8127 14.0146 54.171 15.6511 54.8875 17.0649C55.6041 18.4787 56.6015 19.5826 57.8797 20.3767C59.1772 21.1514 60.6491 21.5387 62.2952 21.5387C63.9026 21.5387 65.2873 21.1514 66.4493 20.3767C67.6307 19.5826 68.5118 18.5368 69.0928 17.2392L70.8649 18.0236C70.5163 18.8757 69.9449 19.7085 69.1509 20.5219C68.3569 21.3353 67.3789 22.0132 66.2169 22.5555C65.0549 23.0784 63.7477 23.3398 62.2952 23.3398Z" fill="#2C313F"/>
<path d="M78.858 22.9912V1.3486H80.7463V14.3342L80.1943 14.0727L91.5818 1.3486H94.022L85.249 11.1967L85.3361 9.8604L94.6029 22.9912H92.308L84.4937 11.9811L80.7463 16.2225V22.9912H78.858Z" fill="#2C313F"/>
<path d="M101.323 22.9912V1.3486H103.211V22.9912H101.323Z" fill="#2C313F"/>
<path d="M112.128 22.9912V1.3486H113.726L126.827 20.1443H126.217V1.3486H128.105V22.9912H126.507L113.348 4.07935H114.016V22.9912H112.128Z" fill="#2C313F"/>
<path d="M21.0316 82H1V42.0556H21.0316C34.0905 42.0556 42.3631 49.3887 42.3631 62.0278C42.3631 74.6669 34.0905 82 21.0316 82ZM21.0316 52.1311H12.109V71.9245H21.0316C28.0633 71.9245 30.486 71.0302 30.486 62.0278C30.486 53.0254 28.0633 52.1311 21.0316 52.1311Z" fill="#2C313F"/>
<path d="M80.4611 82H45.3024V42.0556H80.4611V52.1311H56.4114V56.9006H79.5747V66.9165H56.4114V71.9245H80.4611V82Z" fill="#2C313F"/>
<path d="M113.105 82H97.1504L81.2551 42.0556H94.6686L104.891 70.6725H105.659L115.646 42.0556H129L113.105 82Z" fill="#2C313F"/>
<path d="M1 32.0695H129M1.47819 22.9912V1.3486H8.7406C10.1156 1.3486 11.326 1.61974 12.3718 2.16202C13.4176 2.7043 14.231 3.46929 14.812 4.45701C15.4123 5.44472 15.7125 6.58738 15.7125 7.88496C15.7125 9.43432 15.2865 10.761 14.4343 11.8649C13.6016 12.9494 12.4783 13.6951 11.0646 14.1018L16.1773 22.9912H13.9405L8.5663 13.5208L10.135 14.4213H3.36641V22.9912H1.47819ZM3.36641 12.6783H8.7987C9.78639 12.6783 10.6579 12.4846 11.4132 12.0973C12.1685 11.6906 12.7591 11.1289 13.1852 10.4124C13.6113 9.67641 13.8243 8.82426 13.8243 7.85591C13.8243 6.88756 13.6113 6.05478 13.1852 5.35757C12.7591 4.64099 12.1685 4.08903 11.4132 3.70169C10.6579 3.29499 9.78639 3.09163 8.7987 3.09163H3.36641V12.6783ZM33.5692 23.3398C32.078 23.3398 30.6836 23.0687 29.386 22.5264C28.0885 21.9648 26.9459 21.1901 25.9582 20.2024C24.9899 19.1953 24.2249 18.0139 23.6633 16.6582C23.121 15.2832 22.8499 13.7822 22.8499 12.1554C22.8499 10.5092 23.121 9.00825 23.6633 7.65256C24.2249 6.29687 24.9995 5.12517 25.9872 4.13745C26.9749 3.13037 28.1079 2.35569 29.386 1.81341C30.6836 1.27114 32.078 1 33.5692 1C35.041 1 36.4257 1.27114 37.7233 1.81341C39.0208 2.35569 40.1538 3.13037 41.1221 4.13745C42.1098 5.12517 42.8844 6.30655 43.4461 7.68161C44.0077 9.0373 44.2885 10.5286 44.2885 12.1554C44.2885 13.7822 44.0077 15.2832 43.4461 16.6582C42.8844 18.0139 42.1098 19.1953 41.1221 20.2024C40.1538 21.1901 39.0208 21.9648 37.7233 22.5264C36.4257 23.0687 35.041 23.3398 33.5692 23.3398ZM33.5692 21.5387C34.8667 21.5387 36.0578 21.2966 37.1423 20.8124C38.2268 20.3283 39.1564 19.6504 39.9311 18.7789C40.7251 17.9074 41.3351 16.91 41.7612 15.7867C42.1873 14.644 42.4003 13.4336 42.4003 12.1554C42.4003 10.8965 42.1873 9.70546 41.7612 8.58218C41.3351 7.43952 40.7251 6.43244 39.9311 5.56093C39.1564 4.68941 38.2268 4.01157 37.1423 3.52739C36.0771 3.02385 34.8861 2.77208 33.5692 2.77208C32.2523 2.77208 31.0516 3.02385 29.967 3.52739C28.9019 4.01157 27.9723 4.68941 27.1783 5.56093C26.4036 6.43244 25.8033 7.43952 25.3772 8.58218C24.9511 9.70546 24.7381 10.8965 24.7381 12.1554C24.7381 13.4336 24.9511 14.644 25.3772 15.7867C25.8033 16.91 26.4036 17.9074 27.1783 18.7789C27.9723 19.6504 28.9116 20.3283 29.9961 20.8124C31.0806 21.2966 32.2716 21.5387 33.5692 21.5387ZM62.2952 23.3398C60.804 23.3398 59.429 23.0687 58.1702 22.5264C56.9113 21.9648 55.8075 21.1804 54.8585 20.1733C53.9289 19.1662 53.2027 17.9848 52.6798 16.6292C52.1762 15.2735 51.9245 13.7822 51.9245 12.1554C51.9245 10.5479 52.1762 9.06635 52.6798 7.71066C53.2027 6.33561 53.9289 5.15422 54.8585 4.1665C55.8075 3.15942 56.9113 2.38474 58.1702 1.84246C59.429 1.28082 60.804 1 62.2952 1C63.7477 1 65.0549 1.26145 66.2169 1.78436C67.3789 2.30727 68.3569 2.97543 69.1509 3.78885C69.9449 4.60226 70.5163 5.44472 70.8649 6.31624L69.0928 7.1006C68.5118 5.80301 67.6307 4.7572 66.4493 3.96315C65.2873 3.1691 63.9026 2.77208 62.2952 2.77208C60.6491 2.77208 59.1772 3.1691 57.8797 3.96315C56.6015 4.7572 55.6041 5.86111 54.8875 7.2749C54.171 8.66933 53.8127 10.2962 53.8127 12.1554C53.8127 14.0146 54.171 15.6511 54.8875 17.0649C55.6041 18.4787 56.6015 19.5826 57.8797 20.3767C59.1772 21.1514 60.6491 21.5387 62.2952 21.5387C63.9026 21.5387 65.2873 21.1514 66.4493 20.3767C67.6307 19.5826 68.5118 18.5368 69.0928 17.2392L70.8649 18.0236C70.5163 18.8757 69.9449 19.7085 69.1509 20.5219C68.3569 21.3353 67.3789 22.0132 66.2169 22.5555C65.0549 23.0784 63.7477 23.3398 62.2952 23.3398ZM78.858 22.9912V1.3486H80.7463V14.3342L80.1943 14.0727L91.5818 1.3486H94.022L85.249 11.1967L85.3361 9.8604L94.6029 22.9912H92.308L84.4937 11.9811L80.7463 16.2225V22.9912H78.858ZM101.323 22.9912V1.3486H103.211V22.9912H101.323ZM112.128 22.9912V1.3486H113.726L126.827 20.1443H126.217V1.3486H128.105V22.9912H126.507L113.348 4.07935H114.016V22.9912H112.128ZM21.0316 82H1V42.0556H21.0316C34.0905 42.0556 42.3631 49.3887 42.3631 62.0278C42.3631 74.6669 34.0905 82 21.0316 82ZM21.0316 52.1311H12.109V71.9245H21.0316C28.0633 71.9245 30.486 71.0302 30.486 62.0278C30.486 53.0254 28.0633 52.1311 21.0316 52.1311ZM80.4611 82H45.3024V42.0556H80.4611V52.1311H56.4114V56.9006H79.5747V66.9165H56.4114V71.9245H80.4611V82ZM113.105 82H97.1504L81.2551 42.0556H94.6686L104.891 70.6725H105.659L115.646 42.0556H129L113.105 82Z" stroke="#2C313F" stroke-width="2"/>
</svg>
