<svg width="153" height="53" viewBox="0 0 153 53" fill="none" xmlns="http://www.w3.org/2000/svg">
<rect width="153" height="52.1209" rx="26.0605" transform="matrix(1 1.74846e-07 1.74846e-07 -1 0 52.1211)" fill="#2C313F"/>
<path d="M28.084 35.216C27.232 35.216 26.44 35.06 25.708 34.748C24.988 34.436 24.364 34.004 23.836 33.452C23.32 32.888 22.942 32.234 22.702 31.49L24.736 30.608C25.06 31.376 25.528 31.982 26.14 32.426C26.752 32.858 27.442 33.074 28.21 33.074C28.642 33.074 29.014 33.008 29.326 32.876C29.65 32.732 29.896 32.54 30.064 32.3C30.244 32.06 30.334 31.772 30.334 31.436C30.334 31.04 30.214 30.716 29.974 30.464C29.746 30.2 29.398 29.996 28.93 29.852L26.356 29.024C25.312 28.7 24.526 28.214 23.998 27.566C23.47 26.918 23.206 26.156 23.206 25.28C23.206 24.512 23.392 23.834 23.764 23.246C24.148 22.658 24.676 22.202 25.348 21.878C26.032 21.542 26.812 21.374 27.688 21.374C28.492 21.374 29.23 21.518 29.902 21.806C30.574 22.082 31.15 22.472 31.63 22.976C32.122 23.468 32.488 24.05 32.728 24.722L30.712 25.622C30.448 24.95 30.052 24.434 29.524 24.074C28.996 23.702 28.384 23.516 27.688 23.516C27.28 23.516 26.92 23.588 26.608 23.732C26.296 23.864 26.05 24.056 25.87 24.308C25.702 24.548 25.618 24.836 25.618 25.172C25.618 25.544 25.738 25.874 25.978 26.162C26.218 26.438 26.584 26.654 27.076 26.81L29.542 27.584C30.61 27.932 31.408 28.412 31.936 29.024C32.476 29.636 32.746 30.392 32.746 31.292C32.746 32.06 32.548 32.738 32.152 33.326C31.756 33.914 31.21 34.376 30.514 34.712C29.818 35.048 29.008 35.216 28.084 35.216ZM34.9503 35V21.59H43.8603V23.75H37.3983V27.188H43.5003V29.348H37.3983V32.84H43.8603V35H34.9503ZM45.6554 35V21.59H47.5634L54.9434 31.526L53.9534 31.724V21.59H56.4014V35H54.4754L47.2034 24.992L48.1034 24.794V35H45.6554ZM58.9972 35V21.59H63.3712C64.7872 21.59 66.0172 21.878 67.0612 22.454C68.1172 23.018 68.9332 23.804 69.5092 24.812C70.0852 25.808 70.3732 26.966 70.3732 28.286C70.3732 29.594 70.0852 30.758 69.5092 31.778C68.9332 32.786 68.1172 33.578 67.0612 34.154C66.0172 34.718 64.7872 35 63.3712 35H58.9972ZM61.4452 32.84H63.4252C64.3372 32.84 65.1232 32.654 65.7832 32.282C66.4552 31.898 66.9772 31.37 67.3492 30.698C67.7212 30.014 67.9072 29.21 67.9072 28.286C67.9072 27.35 67.7212 26.546 67.3492 25.874C66.9772 25.202 66.4552 24.68 65.7832 24.308C65.1232 23.936 64.3372 23.75 63.4252 23.75H61.4452V32.84Z" fill="white"/>
<rect width="42.033" height="42.033" rx="21.0165" transform="matrix(1 1.74846e-07 1.74846e-07 -1 105.923 47.0786)" fill="#5AC4FF"/>
<path d="M132.346 21.6558C132.346 21.1035 131.898 20.6558 131.346 20.6558L122.346 20.6558C121.794 20.6558 121.346 21.1035 121.346 21.6558C121.346 22.2081 121.794 22.6558 122.346 22.6558L130.346 22.6558L130.346 30.6558C130.346 31.2081 130.794 31.6558 131.346 31.6558C131.898 31.6558 132.346 31.2081 132.346 30.6558L132.346 21.6558ZM122.901 31.5152L132.053 22.3629L130.639 20.9487L121.486 30.101L122.901 31.5152Z" fill="#2C313F"/>
</svg>
