<svg width="227" height="42" viewBox="0 0 227 42" fill="none" xmlns="http://www.w3.org/2000/svg">
<path d="M20.7049 1.25707C20.8489 0.842782 21.4348 0.842782 21.5788 1.25707L25.9305 13.7765C25.9941 13.9593 26.1646 14.0832 26.3581 14.0871L39.6095 14.3572C40.048 14.3661 40.2291 14.9233 39.8796 15.1883L29.3176 23.1958C29.1635 23.3127 29.0983 23.5132 29.1543 23.6984L32.9924 36.3847C33.1194 36.8045 32.6454 37.1489 32.2854 36.8984L21.4061 29.3278C21.2472 29.2173 21.0364 29.2173 20.8776 29.3278L9.99822 36.8984C9.63821 37.1489 9.1642 36.8045 9.29121 36.3847L13.1293 23.6984C13.1853 23.5132 13.1202 23.3127 12.966 23.1958L2.40409 15.1883C2.05458 14.9233 2.23563 14.3661 2.67414 14.3572L15.9256 14.0871C16.119 14.0832 16.2896 13.9593 16.3531 13.7765L20.7049 1.25707Z" fill="black"/>
<path d="M66.9651 1.25707C67.1091 0.842782 67.695 0.842782 67.839 1.25707L72.1908 13.7765C72.2543 13.9593 72.4249 14.0832 72.6183 14.0871L85.8698 14.3572C86.3083 14.3661 86.4893 14.9233 86.1398 15.1883L75.5779 23.1958C75.4237 23.3127 75.3586 23.5132 75.4146 23.6984L79.2527 36.3847C79.3797 36.8045 78.9057 37.1489 78.5457 36.8984L67.6663 29.3278C67.5075 29.2173 67.2967 29.2173 67.1379 29.3278L56.2585 36.8984C55.8985 37.1489 55.4245 36.8045 55.5515 36.3847L59.3896 23.6984C59.4456 23.5132 59.3804 23.3127 59.2263 23.1958L48.6643 15.1883C48.3148 14.9233 48.4959 14.3661 48.9344 14.3572L62.1858 14.0871C62.3793 14.0832 62.5498 13.9593 62.6134 13.7765L66.9651 1.25707Z" fill="black"/>
<path d="M113.225 1.25707C113.369 0.842782 113.955 0.842782 114.099 1.25707L118.451 13.7765C118.515 13.9593 118.685 14.0832 118.879 14.0871L132.13 14.3572C132.569 14.3661 132.75 14.9233 132.4 15.1883L121.838 23.1958C121.684 23.3127 121.619 23.5132 121.675 23.6984L125.513 36.3847C125.64 36.8045 125.166 37.1489 124.806 36.8984L113.927 29.3278C113.768 29.2173 113.557 29.2173 113.398 29.3278L102.519 36.8984C102.159 37.1489 101.685 36.8045 101.812 36.3847L105.65 23.6984C105.706 23.5132 105.641 23.3127 105.487 23.1958L94.9246 15.1883C94.5751 14.9233 94.7561 14.3661 95.1946 14.3572L108.446 14.0871C108.64 14.0832 108.81 13.9593 108.874 13.7765L113.225 1.25707Z" fill="black"/>
<path d="M159.486 1.25707C159.63 0.842782 160.216 0.842782 160.36 1.25707L164.711 13.7765C164.775 13.9593 164.945 14.0832 165.139 14.0871L178.39 14.3572C178.829 14.3661 179.01 14.9233 178.66 15.1883L168.098 23.1958C167.944 23.3127 167.879 23.5132 167.935 23.6984L171.773 36.3847C171.9 36.8045 171.426 37.1489 171.066 36.8984L160.187 29.3278C160.028 29.2173 159.817 29.2173 159.658 29.3278L148.779 36.8984C148.419 37.1489 147.945 36.8045 148.072 36.3847L151.91 23.6984C151.966 23.5132 151.901 23.3127 151.747 23.1958L141.185 15.1883C140.835 14.9233 141.016 14.3661 141.455 14.3572L154.706 14.0871C154.9 14.0832 155.07 13.9593 155.134 13.7765L159.486 1.25707Z" fill="black"/>
<path d="M205.746 1.25707C205.89 0.842782 206.476 0.842782 206.62 1.25707L210.972 13.7765C211.035 13.9593 211.206 14.0832 211.399 14.0871L224.651 14.3572C225.089 14.3661 225.27 14.9233 224.921 15.1883L214.359 23.1958C214.205 23.3127 214.139 23.5132 214.195 23.6984L218.034 36.3847C218.161 36.8045 217.687 37.1489 217.327 36.8984L206.447 29.3278C206.288 29.2173 206.077 29.2173 205.919 29.3278L195.039 36.8984C194.679 37.1489 194.205 36.8045 194.332 36.3847L198.17 23.6984C198.226 23.5132 198.161 23.3127 198.007 23.1958L187.445 15.1883C187.096 14.9233 187.277 14.3661 187.715 14.3572L200.967 14.0871C201.16 14.0832 201.331 13.9593 201.394 13.7765L205.746 1.25707Z" fill="black"/>
</svg>
