<svg width="40" height="41" viewBox="0 0 40 41" fill="none" xmlns="http://www.w3.org/2000/svg">
<circle opacity="0.1" cx="20.1083" cy="20.6306" r="19.3913" stroke="white"/>
<path fill-rule="evenodd" clip-rule="evenodd" d="M20.9696 11.0088C15.8676 11.0088 11.7629 15.1134 11.7629 20.2155C11.7629 24.2818 14.4099 27.7343 18.0542 28.9618C18.5145 29.0385 18.668 28.77 18.668 28.5015C18.668 28.2713 18.668 27.6959 18.668 26.9287C16.0978 27.5041 15.5607 25.7011 15.5607 25.7011C15.1387 24.627 14.5249 24.3585 14.5249 24.3585C13.681 23.7831 14.6017 23.7831 14.6017 23.7831C15.5223 23.8598 16.021 24.7421 16.021 24.7421C16.8266 26.1615 18.1693 25.7395 18.7063 25.5093C18.783 24.8955 19.0132 24.5119 19.2817 24.2818C17.2486 24.0516 15.1004 23.246 15.1004 19.7168C15.1004 18.7194 15.4456 17.8754 16.0594 17.2617C15.9827 17.0315 15.6374 16.1108 16.1361 14.8065C16.1361 14.8065 16.9033 14.5764 18.668 15.7656C19.3968 15.5738 20.2024 15.4587 20.9696 15.4587C21.7368 15.4587 22.5424 15.5738 23.2713 15.7656C25.0359 14.5764 25.8031 14.8065 25.8031 14.8065C26.3018 16.0725 25.9949 16.9931 25.8799 17.2617C26.4553 17.9138 26.8389 18.7194 26.8389 19.7168C26.8389 23.246 24.6907 24.0132 22.6192 24.2434C22.9644 24.5119 23.2329 25.0873 23.2329 25.9313C23.2329 27.1588 23.2329 28.1562 23.2329 28.4631C23.2329 28.6933 23.3864 29.0002 23.8851 28.9235C27.5294 27.7343 30.1763 24.2818 30.1763 20.2155C30.1763 15.1134 26.0717 11.0088 20.9696 11.0088Z" fill="white"/>
</svg>
