<svg width="41" height="41" viewBox="0 0 41 41" fill="none" xmlns="http://www.w3.org/2000/svg">
<circle opacity="0.1" cx="20.3688" cy="20.6306" r="19.3913" stroke="white"/>
<path d="M20.3709 12.7431C22.9407 12.7431 23.2451 12.7527 24.2603 12.799C24.8706 12.8065 25.4752 12.9186 26.0477 13.1304C26.4629 13.2905 26.8399 13.5358 27.1546 13.8504C27.4692 14.165 27.7145 14.5421 27.8746 14.9573C28.0864 15.5298 28.1985 16.1343 28.206 16.7447C28.2518 17.7599 28.2619 18.0642 28.2619 20.6341C28.2619 23.2039 28.2523 23.5082 28.206 24.5234C28.1985 25.1338 28.0864 25.7384 27.8746 26.3109C27.7145 26.7261 27.4692 27.1031 27.1546 27.4177C26.8399 27.7324 26.4629 27.9777 26.0477 28.1378C25.4752 28.3496 24.8706 28.4617 24.2603 28.4691C23.2455 28.515 22.9412 28.525 20.3709 28.525C17.8006 28.525 17.4963 28.5154 16.4816 28.4691C15.8712 28.4617 15.2666 28.3496 14.6941 28.1378C14.2789 27.9777 13.9019 27.7324 13.5873 27.4177C13.2726 27.1031 13.0273 26.7261 12.8672 26.3109C12.6554 25.7384 12.5433 25.1338 12.5359 24.5234C12.49 23.5082 12.4799 23.2039 12.4799 20.6341C12.4799 18.0642 12.4896 17.7599 12.5359 16.7447C12.5433 16.1343 12.6554 15.5298 12.8672 14.9573C13.0273 14.5421 13.2726 14.165 13.5873 13.8504C13.9019 13.5358 14.2789 13.2905 14.6941 13.1304C15.2666 12.9186 15.8712 12.8065 16.4816 12.799C17.4968 12.7532 17.8011 12.7431 20.3709 12.7431ZM20.3709 11.0088C17.7585 11.0088 17.4294 11.0198 16.4027 11.0665C15.6039 11.0824 14.8135 11.2337 14.0653 11.5139C13.4234 11.7557 12.842 12.1347 12.3617 12.6244C11.8716 13.1049 11.4922 13.6866 11.2503 14.3289C10.9701 15.0772 10.8188 15.8675 10.8029 16.6664C10.7571 17.6921 10.7461 18.0212 10.7461 20.6336C10.7461 23.2461 10.7571 23.5751 10.8038 24.6018C10.8197 25.4006 10.971 26.191 11.2512 26.9392C11.4929 27.5815 11.8719 28.1632 12.3617 28.6438C12.8423 29.1336 13.424 29.5126 14.0662 29.7543C14.8145 30.0345 15.6048 30.1857 16.4037 30.2016C17.4303 30.2474 17.758 30.2594 20.3718 30.2594C22.9857 30.2594 23.3134 30.2484 24.34 30.2016C25.1389 30.1857 25.9292 30.0345 26.6775 29.7543C27.3166 29.5065 27.8971 29.1281 28.3816 28.6432C28.8662 28.1583 29.2442 27.5777 29.4916 26.9383C29.7718 26.1901 29.923 25.3997 29.9389 24.6009C29.9847 23.5751 29.9957 23.2461 29.9957 20.6336C29.9957 18.0212 29.9847 17.6921 29.938 16.6654C29.9221 15.8666 29.7709 15.0762 29.4907 14.328C29.2489 13.6858 28.87 13.1041 28.3801 12.6235C27.8996 12.1337 27.3179 11.7547 26.6756 11.5129C25.9274 11.2328 25.137 11.0815 24.3382 11.0656C23.3124 11.0198 22.9834 11.0088 20.3709 11.0088Z" fill="white"/>
<path d="M20.3732 15.6924C19.3957 15.6924 18.4401 15.9823 17.6273 16.5254C16.8145 17.0685 16.181 17.8404 15.8069 18.7435C15.4328 19.6467 15.3349 20.6404 15.5256 21.5992C15.7163 22.558 16.1871 23.4387 16.8783 24.1299C17.5695 24.8211 18.4502 25.2919 19.409 25.4826C20.3678 25.6733 21.3615 25.5754 22.2647 25.2013C23.1678 24.8272 23.9397 24.1937 24.4828 23.3809C25.0259 22.5681 25.3158 21.6125 25.3158 20.635C25.3158 19.3241 24.7951 18.0669 23.8682 17.14C22.9413 16.2131 21.6841 15.6924 20.3732 15.6924ZM20.3732 23.8432C19.7387 23.8432 19.1184 23.6551 18.5908 23.3025C18.0632 22.95 17.652 22.4489 17.4092 21.8627C17.1664 21.2765 17.1028 20.6314 17.2266 20.0091C17.3504 19.3867 17.656 18.8151 18.1047 18.3664C18.5533 17.9177 19.125 17.6121 19.7473 17.4883C20.3697 17.3645 21.0148 17.4281 21.601 17.6709C22.1872 17.9137 22.6883 18.3249 23.0408 18.8525C23.3934 19.3801 23.5815 20.0004 23.5815 20.635C23.5815 21.4858 23.2435 22.3019 22.6418 22.9036C22.0402 23.5052 21.2241 23.8432 20.3732 23.8432Z" fill="white"/>
<path d="M25.5095 16.6527C26.1473 16.6527 26.6645 16.1356 26.6645 15.4978C26.6645 14.8599 26.1473 14.3428 25.5095 14.3428C24.8716 14.3428 24.3545 14.8599 24.3545 15.4978C24.3545 16.1356 24.8716 16.6527 25.5095 16.6527Z" fill="white"/>
</svg>
