<svg width="40" height="41" viewBox="0 0 40 41" fill="none" xmlns="http://www.w3.org/2000/svg">
<circle opacity="0.1" cx="19.8913" cy="20.6306" r="19.3913" stroke="white"/>
<path d="M28.71 16.3448C28.1146 16.6094 27.4862 16.7748 26.8247 16.874C27.4862 16.4771 28.0154 15.8487 28.2469 15.088C27.6185 15.4518 26.9239 15.7164 26.1632 15.8818C25.5679 15.2533 24.7079 14.8564 23.7818 14.8564C21.9958 14.8564 20.5405 16.3117 20.5405 18.0978C20.5405 18.3624 20.5735 18.5939 20.6397 18.8254C17.9606 18.6931 15.5461 17.4032 13.9255 15.4187C13.6609 15.9148 13.4955 16.444 13.4955 17.0394C13.4955 18.1639 14.0578 19.1562 14.9508 19.7515C14.4216 19.7185 13.9255 19.5862 13.4624 19.3546V19.3877C13.4624 20.9753 14.587 22.2983 16.0753 22.596C15.8107 22.6621 15.5131 22.6952 15.2154 22.6952C15.0169 22.6952 14.7854 22.6621 14.587 22.6291C15.0169 23.919 16.2076 24.8782 17.6299 24.8782C16.5053 25.7381 15.1162 26.2673 13.5947 26.2673C13.3301 26.2673 13.0655 26.2673 12.834 26.2342C14.2893 27.1603 15.9761 27.6895 17.8283 27.6895C23.8149 27.6895 27.0893 22.7283 27.0893 18.4285C27.0893 18.2962 27.0893 18.1309 27.0893 17.9986C27.7177 17.5686 28.28 17.0063 28.71 16.3448Z" fill="white"/>
</svg>
